<svg width="987" height="927" viewBox="0 0 987 927" fill="none" xmlns="http://www.w3.org/2000/svg">
<rect width="987" height="927" rx="15" fill="#2B2D42"/>
<path d="M693.4 543.8C694.467 545.933 696.333 547 699 547C701.667 547 703 545.4 703 542.2C704.067 525.133 704.6 506.2 704.6 485.4C704.6 464.067 704.333 441.667 703.8 418.2C703.8 394.733 703.267 370.733 702.2 346.2C701.667 321.667 700.6 297.667 699 274.2C697.4 250.2 695.267 227.533 692.6 206.2C692.067 199.8 693.667 196.6 697.4 196.6H770.2C773.4 196.6 776.067 197.4 778.2 199C780.867 200.6 782.467 202.733 783 205.4C786.733 225.133 789.667 249.133 791.8 277.4C793.933 305.133 795.267 335.533 795.8 368.6C796.333 401.667 796.333 435.533 795.8 470.2C795.8 504.333 795 537.667 793.4 570.2C792.333 602.733 791 632.6 789.4 659.8C787.8 686.467 785.933 708.6 783.8 726.2C783.267 730.467 781.667 733.133 779 734.2C776.333 734.733 773.4 735 770.2 735H723C719.267 735 715.533 731.267 711.8 723.8L487.8 384.6C487.267 382.467 485.933 381.4 483.8 381.4C481.667 381.4 480.6 382.733 480.6 385.4C480.067 412.6 479.533 439.533 479 466.2C479 492.333 479 517.933 479 543C479.533 567.533 480.067 591 480.6 613.4C481.667 635.8 482.733 656.6 483.8 675.8C485.4 694.467 487.267 711.267 489.4 726.2C489.4 732.067 487.533 735 483.8 735H411.8C409.133 735 406.2 734.733 403 734.2C400.333 733.133 398.733 730.467 398.2 726.2C396.067 708.067 394.2 685.4 392.6 658.2C391 631 389.667 601.133 388.6 568.6C387.533 536.067 387 502.733 387 468.6C387 433.933 387.267 400.333 387.8 367.8C388.867 334.733 390.2 304.333 391.8 276.6C393.933 248.333 396.867 224.6 400.6 205.4C401.133 202.733 402.733 200.6 405.4 199C408.067 197.4 410.733 196.6 413.4 196.6H459C462.733 196.6 465.667 198.733 467.8 203L693.4 543.8Z" fill="white"/>
<mask id="path-3-outside-1_13_10" maskUnits="userSpaceOnUse" x="199" y="202" width="89" height="525" fill="black">
<rect fill="white" x="199" y="202" width="89" height="525"/>
<path fill-rule="evenodd" clip-rule="evenodd" d="M214.694 205C212.645 205 210.927 206.549 210.716 208.587L203 282.892L210.99 601.687C211.045 603.857 212.819 605.587 214.989 605.587H272.19C274.349 605.587 276.116 603.962 276.184 601.803C277.273 567.363 285.369 308.851 284.017 282.892C282.797 259.478 277.997 220.299 276.508 208.479C276.256 206.485 274.56 205 272.55 205H214.694ZM214.244 667.216C211.482 667.216 209.244 669.455 209.244 672.216V718.709C209.244 721.471 211.482 723.709 214.244 723.709H272.925C275.687 723.709 277.925 721.471 277.925 718.709V672.216C277.925 669.455 275.687 667.216 272.925 667.216H214.244Z"/>
</mask>
<path fill-rule="evenodd" clip-rule="evenodd" d="M214.694 205C212.645 205 210.927 206.549 210.716 208.587L203 282.892L210.99 601.687C211.045 603.857 212.819 605.587 214.989 605.587H272.19C274.349 605.587 276.116 603.962 276.184 601.803C277.273 567.363 285.369 308.851 284.017 282.892C282.797 259.478 277.997 220.299 276.508 208.479C276.256 206.485 274.56 205 272.55 205H214.694ZM214.244 667.216C211.482 667.216 209.244 669.455 209.244 672.216V718.709C209.244 721.471 211.482 723.709 214.244 723.709H272.925C275.687 723.709 277.925 721.471 277.925 718.709V672.216C277.925 669.455 275.687 667.216 272.925 667.216H214.244Z" fill="white"/>
<path d="M210.716 208.587L207.732 208.277L207.732 208.277L210.716 208.587ZM203 282.892L200.016 282.582L199.996 282.774L200.001 282.967L203 282.892ZM210.99 601.687L213.989 601.612L213.989 601.612L210.99 601.687ZM276.184 601.803L279.183 601.898L279.183 601.898L276.184 601.803ZM284.017 282.892L281.021 283.048L281.021 283.048L284.017 282.892ZM276.508 208.479L273.531 208.854L273.531 208.854L276.508 208.479ZM213.7 208.897C213.753 208.387 214.182 208 214.694 208V202C211.108 202 208.102 204.71 207.732 208.277L213.7 208.897ZM205.984 283.202L213.7 208.897L207.732 208.277L200.016 282.582L205.984 283.202ZM213.989 601.612L205.999 282.817L200.001 282.967L207.991 601.763L213.989 601.612ZM214.989 602.587C214.447 602.587 214.003 602.155 213.989 601.612L207.991 601.763C208.086 605.559 211.191 608.587 214.989 608.587V602.587ZM272.19 602.587H214.989V608.587H272.19V602.587ZM273.186 601.709C273.171 602.161 272.817 602.587 272.19 602.587V608.587C275.881 608.587 279.061 605.762 279.183 601.898L273.186 601.709ZM281.021 283.048C281.689 295.871 280.011 366.801 278.017 439.085C276.026 511.256 273.73 584.49 273.186 601.709L279.183 601.898C279.727 584.677 282.023 511.434 284.015 439.25C286.003 367.178 287.697 295.872 287.013 282.736L281.021 283.048ZM273.531 208.854C275.024 220.698 279.808 259.764 281.021 283.048L287.013 282.736C285.787 259.192 280.971 219.9 279.484 208.104L273.531 208.854ZM272.55 208C273.06 208 273.47 208.371 273.531 208.854L279.484 208.104C279.042 204.598 276.06 202 272.55 202V208ZM214.694 208H272.55V202H214.694V208ZM212.244 672.216C212.244 671.112 213.139 670.216 214.244 670.216V664.216C209.825 664.216 206.244 667.798 206.244 672.216H212.244ZM212.244 718.709V672.216H206.244V718.709H212.244ZM214.244 720.709C213.139 720.709 212.244 719.814 212.244 718.709H206.244C206.244 723.127 209.825 726.709 214.244 726.709V720.709ZM272.925 720.709H214.244V726.709H272.925V720.709ZM274.925 718.709C274.925 719.814 274.03 720.709 272.925 720.709V726.709C277.343 726.709 280.925 723.127 280.925 718.709H274.925ZM274.925 672.216V718.709H280.925V672.216H274.925ZM272.925 670.216C274.03 670.216 274.925 671.112 274.925 672.216H280.925C280.925 667.798 277.343 664.216 272.925 664.216V670.216ZM214.244 670.216H272.925V664.216H214.244V670.216Z" fill="white" mask="url(#path-3-outside-1_13_10)"/>
</svg>
